# Blender v3.4.1 OBJ File: ''
# www.blender.org
mtllib untitled.mtl
o chimenea
v -36.000000 -0.000002 12.000000
v -36.000000 0.000004 -24.000000
v 36.000000 0.000004 -24.000000
v -30.000000 -0.000002 12.000000
v 30.000000 -0.000002 12.000000
v 36.000000 -0.000002 12.000000
v -30.000000 -0.000004 24.000000
v 30.000000 -0.000004 24.000000
v 28.000000 47.999996 12.000008
v -28.000000 47.999996 12.000008
v -24.000000 48.000004 -11.937492
v 24.000000 48.000004 -11.937492
v -30.000000 13.999998 12.000002
v 30.000000 13.999998 12.000002
v -28.000000 13.999998 12.000002
v 28.000000 13.999998 12.000002
v 28.000000 15.999998 12.000003
v -28.000000 15.999998 12.000003
v -25.000000 112.000000 7.000018
v -25.000000 112.000008 -24.999981
v 25.000000 112.000008 -24.999981
v 25.000000 112.000000 7.000018
v -31.000000 15.999996 25.000002
v -31.000000 15.999998 12.000003
v 31.000000 15.999996 25.000002
v 31.000000 15.999998 12.000003
v 24.000000 64.000008 -23.999990
v 24.000000 64.000008 -24.999990
v 37.000000 64.000008 -24.999990
v 24.000000 64.000000 6.000010
v 37.000000 63.999996 13.000010
v -24.000000 64.000000 6.000010
v -37.000000 63.999996 13.000010
v -24.000000 64.000008 -24.999990
v -37.000000 64.000008 -24.999990
v -24.000000 64.000008 -23.999990
v 24.000000 62.000000 6.000010
v 24.000000 62.000004 -23.999990
v 36.000000 62.000004 -23.999990
v 36.000000 61.999996 12.000010
v -24.000000 62.000000 6.000010
v -36.000000 61.999996 12.000010
v -24.000000 62.000004 -23.999990
v -36.000000 62.000004 -23.999990
v -24.000000 110.000000 6.000018
v -24.000000 110.000008 -23.999983
v 24.000000 110.000008 -23.999983
v 24.000000 110.000000 6.000018
v -30.000000 13.999996 24.000002
v 30.000000 13.999996 24.000002
v 31.000000 13.999998 12.000002
v -31.000000 13.999998 12.000002
v -24.000000 16.000002 -11.937497
v 24.000000 16.000002 -11.937497
v -25.000000 110.000000 7.000018
v 25.000000 110.000000 7.000018
v -25.000000 110.000000 6.000018
v 25.000000 110.000000 6.000018
v 25.000000 110.000008 -24.999983
v 24.000000 110.000008 -24.999983
v 37.000000 61.999996 13.000010
v 37.000000 62.000004 -24.999990
v 36.000000 62.000004 -24.999990
v 36.000000 61.999996 13.000010
v -37.000000 61.999996 13.000010
v -37.000000 61.999996 12.000010
v -37.000000 62.000004 -24.999990
v -36.000000 62.000004 -24.999990
v -31.000000 13.999996 25.000002
v -30.000000 13.999996 25.000002
v 31.000000 13.999996 25.000002
v 31.000000 13.999996 24.000002
v -25.000000 110.000008 -24.999983
v -25.000000 110.000008 -23.999983
v 24.000000 62.000004 -24.999990
v -24.000000 62.000004 -24.999990
vt 0.000000 0.000000
vt 0.000000 0.000000
vt 0.000000 0.000000
vt 0.000000 0.000000
vt 0.000000 0.000000
vt 0.000000 0.000000
vt 0.000000 0.000000
vt 0.000000 0.000000
vt 0.000000 0.000000
vt 0.000000 0.000000
vt 0.000000 0.000000
vt 0.000000 0.000000
vt 0.000000 0.000000
vt 0.000000 0.000000
vt 0.000000 0.000000
vt 0.000000 0.000000
vt 0.000000 0.000000
vt 0.000000 0.000000
vt 0.000000 0.000000
vt 0.000000 0.000000
vt 0.000000 0.000000
vt 0.000000 0.000000
vt 0.000000 0.000000
vt 0.000000 0.000000
vt 0.000000 0.000000
vt 0.000000 0.000000
vt 0.000000 0.000000
vt 0.000000 0.000000
vt 0.000000 0.000000
vt 0.000000 0.000000
vt 0.000000 0.000000
vt 0.000000 0.000000
vt 0.000000 0.000000
vt 0.000000 0.000000
vt 0.000000 0.000000
vt 0.000000 0.000000
vt 0.000000 0.000000
vt 0.000000 0.000000
vt 0.000000 0.000000
vt 0.000000 0.000000
vt 0.000000 0.000000
vt 0.000000 0.000000
vt 0.000000 0.000000
vt 0.000000 0.000000
vt 0.000000 0.000000
vt 0.000000 0.000000
vt 0.000000 0.000000
vt 0.000000 0.000000
vt 0.000000 0.000000
vt 0.000000 0.000000
vt 0.000000 0.000000
vt 0.000000 0.000000
vt 0.250000 1.291700
vt 1.250000 1.291700
vt 1.250000 1.333300
vt 0.250000 1.333300
vt 1.250000 2.291700
vt 0.250000 2.291700
vt 0.000000 1.291700
vt 1.500000 1.291700
vt 1.500000 0.000000
vt 0.750000 0.000000
vt 0.750000 1.291700
vt 0.000000 1.291700
vt -1.000000 0.291700
vt -1.000000 0.000000
vt -0.750000 0.000000
vt -0.750000 0.291700
vt -1.375000 0.000000
vt -0.125000 0.000000
vt -0.125000 0.291700
vt -1.375000 0.291700
vt 1.000000 0.000000
vt 1.000000 0.291700
vt 0.750000 0.291700
vt 0.750000 0.000000
vt -0.125000 0.000000
vt 0.000000 1.291700
vt -0.166700 0.291700
vt -0.166700 0.333300
vt -0.166700 1.000000
vt -1.333300 1.000000
vt -1.500000 1.291700
vt -1.333300 0.333300
vt -1.333300 0.291700
vt -1.500000 0.000000
vt -1.375000 0.000000
vt -0.750000 1.291700
vt -0.750000 0.000000
vt 0.625000 1.333300
vt 0.625000 2.291700
vt 0.000000 2.291700
vt 0.000000 1.333300
vt -0.625000 2.291700
vt -0.625000 1.333300
vt 0.000000 1.333300
vt 0.000000 2.291700
vt -1.250000 1.333300
vt -0.250000 1.333300
vt -0.250000 2.291700
vt -1.250000 2.291700
vt -2.307700 0.615400
vt -0.461500 0.615400
vt -0.461500 1.846200
vt -2.307700 1.846200
vt -2.307700 -0.463900
vt -2.461500 -1.384600
vt -0.307700 -1.384600
vt -0.461500 -0.463900
vt 1.315000 0.615400
vt 1.315000 1.846200
vt 0.381500 1.846200
vt 0.381500 0.615400
vt -1.771400 1.846200
vt -1.771400 0.615400
vt -0.837900 0.615400
vt -0.837900 1.846200
vt -0.847200 1.527800
vt -0.152800 1.527800
vt -0.152800 1.555600
vt -0.847200 1.555600
vt 0.847200 -0.430600
vt 0.847200 -0.416700
vt 0.833300 -0.416700
vt 0.152800 -0.430600
vt 0.166700 -0.416700
vt 0.152800 -0.416700
vt -0.430600 1.555600
vt -0.430600 1.527800
vt -0.416700 1.527800
vt 0.013900 1.555600
vt 0.013900 1.527800
vt 0.166700 0.000000
vt 0.166700 0.013900
vt 0.152800 0.013900
vt -0.513900 0.888900
vt -0.513900 0.861100
vt 0.013900 0.861100
vt 0.013900 0.888900
vt 0.000000 0.013900
vt -0.013900 0.013900
vt 0.000000 -0.500000
vt 0.000000 -0.513900
vt -0.013900 -0.513900
vt 0.000000 0.861100
vt 0.013900 0.861100
vt 0.013900 0.888900
vt -1.013900 0.861100
vt -1.013900 0.888900
vt 1.013900 -0.513900
vt 1.013900 -0.500000
vt 1.000000 -0.500000
vt 0.513900 0.861100
vt 0.513900 0.888900
vt -0.013900 0.888900
vt 0.500000 0.861100
vt -0.013900 0.861100
vt 1.013900 0.013900
vt 1.000000 0.013900
vt 1.000000 0.000000
vt 0.680600 0.194400
vt 0.680600 0.222200
vt 0.500000 0.222200
vt 0.500000 0.194400
vt 0.930600 -0.680600
vt 0.930600 -0.500000
vt 0.916700 -0.500000
vt 0.916700 -0.680600
vt 0.916700 -0.666700
vt -0.916700 0.194400
vt -0.069400 0.194400
vt -0.069400 0.222200
vt -0.930600 0.194400
vt -0.930600 0.222200
vt 0.083300 -0.666700
vt 0.069400 -0.680600
vt 0.069400 -0.666700
vt -0.680600 0.222200
vt -0.680600 0.194400
vt -0.666700 0.194400
vt -0.500000 0.222200
vt -0.500000 0.194400
vt 0.083300 -0.500000
vt 0.069400 -0.500000
vt 0.166700 1.527800
vt 0.847200 1.527800
vt 0.847200 1.555600
vt 0.152800 1.527800
vt 0.152800 1.555600
vt 0.847200 0.000000
vt 0.847200 0.013900
vt 0.833300 0.000000
vt 0.000000 0.861100
vt 0.166700 0.861100
vt 0.166700 0.888900
vt -0.013900 0.861100
vt -0.013900 0.888900
vt 0.166700 0.000000
vt 0.166700 0.013900
vt 0.000000 0.861100
vt 0.000000 0.888900
vt -0.013900 0.888900
vt -0.013900 0.861100
vt 1.000000 0.861100
vt 1.013900 0.861100
vt 1.013900 0.888900
vt 0.833300 0.861100
vt 0.833300 0.888900
vt 0.000000 0.888900
vt 0.000000 0.861100
vt 0.013900 0.861100
vt 0.013900 0.888900
vt 0.833300 0.013900
vt 0.833300 0.000000
vt 0.430600 1.527800
vt 0.430600 1.555600
vt -0.013900 1.555600
vt 0.416700 1.527800
vt 0.000000 1.527800
vt -0.013900 1.527800
vn 0.0000 -1.0000 -0.0000
vn 0.0000 0.0000 -1.0000
vn 0.0000 -0.0000 1.0000
vn -0.9239 0.2706 -0.2706
vn -1.0000 0.0000 0.0000
vn 1.0000 0.0000 0.0000
vn 0.0000 1.0000 0.0000
vn -0.9863 -0.0000 0.1648
vn 0.9863 -0.0000 0.1648
vn 0.5923 -0.2961 -0.7493
vn -0.1808 -0.0904 -0.9794
g chimenea_chimenea_wire_134006006
usemtl wire_134006006
s 1
f 1/1/1 2/2/1 3/3/1 4/4/1
f 5/5/1 4/4/1 3/3/1 6/6/1
f 7/7/1 4/4/1 5/5/1 8/8/1
f 9/9/1 10/10/1 11/11/1 12/12/1
f 5/5/2 4/4/2 13/13/2 14/14/2
f 14/14/2 13/13/2 15/15/2 16/16/2
f 15/15/3 16/16/3 17/17/3 18/18/3
f 19/19/1 20/20/1 21/21/1 22/22/1
f 23/23/1 24/24/1 18/18/1 25/25/1
f 25/25/1 18/18/1 17/17/1 26/26/1
f 27/27/1 28/28/1 29/29/1 30/30/1
f 30/30/1 29/29/1 31/31/1 32/32/1
f 32/32/1 31/31/1 33/33/1 34/34/1
f 34/34/1 33/33/1 35/35/1
f 32/32/1 34/34/1 36/36/4
f 37/37/1 38/38/1 39/39/1 40/40/1
f 41/41/1 37/37/1 40/40/1 42/42/1
f 43/43/1 41/41/1 42/42/1 44/44/1
f 37/37/5 30/30/5 27/27/5 38/38/5
f 37/37/2 41/41/2 32/32/2 30/30/2
f 32/32/6 41/41/6 43/43/6 36/36/6
f 45/45/1 46/46/1 47/47/1 48/48/1
f 49/49/1 13/13/1 15/15/1 50/50/1
f 50/50/1 15/15/1 16/16/1 14/14/1
f 14/14/2 16/16/2 17/17/2 51/51/2
f 51/51/2 17/17/2 26/26/2
f 13/13/2 52/52/2 24/24/2 15/15/2
f 15/15/2 24/24/2 18/18/2
f 38/53/2 43/54/2 36/55/2 27/56/2
f 27/56/2 36/55/2 46/57/2 47/58/2
f 43/54/2 38/53/2 39/59/2 44/60/2
f 44/60/2 39/59/2 3/3/2 2/61/2
f 1/62/5 42/63/5 44/64/5 2/2/5
f 50/65/6 8/66/6 5/67/6 14/68/6
f 7/69/3 8/70/3 50/71/3 49/72/3
f 7/73/5 49/74/5 13/75/5 4/76/5
f 5/77/3 6/6/3 40/78/3 16/79/3
f 17/80/3 16/79/3 40/78/3 9/81/3
f 10/82/3 9/81/3 40/78/3 42/83/3
f 18/84/3 10/82/3 42/83/3 15/85/3
f 15/85/3 42/83/3 1/86/3 16/79/3
f 16/79/3 1/86/3 4/87/3 5/77/3
f 40/88/6 6/89/6 3/3/6 39/59/6
f 32/90/5 45/91/5 46/92/5 36/93/5
f 48/94/6 30/95/6 27/96/6 47/97/6
f 32/98/3 30/99/3 48/100/3 45/101/3
f 53/102/3 54/103/3 12/104/3 11/105/3
f 53/106/7 18/107/7 17/108/7 54/109/7
f 17/110/8 9/111/8 12/112/8 54/113/8
f 10/114/9 18/115/9 53/116/9 11/117/9
f 55/118/3 56/119/3 22/120/3 19/121/3
f 55/122/1 57/123/1 45/124/1 56/125/1
f 56/125/1 45/124/1 48/126/1 58/127/1
f 22/128/6 56/129/6 58/130/6 21/131/6
f 21/131/6 58/130/6 59/132/6
f 47/133/1 60/134/1 59/135/1 48/126/1
f 48/126/1 59/135/1 58/127/1
f 31/136/6 61/137/6 62/138/6 29/139/6
f 39/39/1 63/140/1 62/141/1 40/142/1
f 64/143/1 40/142/1 62/141/1 61/144/1
f 64/145/3 61/146/3 31/147/3 65/148/3
f 65/148/3 31/147/3 33/149/3
f 65/150/1 66/151/1 42/152/1 64/143/1
f 64/143/1 42/152/1 40/142/1
f 65/153/5 33/154/5 35/155/5 66/156/5
f 66/156/5 35/155/5 67/157/5
f 66/151/1 67/158/1 68/159/1 42/152/1
f 42/152/1 68/159/1 44/160/10
f 69/161/5 23/162/5 24/163/5 52/164/5
f 69/165/1 52/166/1 13/167/1 70/168/1
f 70/168/1 13/167/1 49/169/11
f 70/170/3 71/171/3 25/172/3 69/173/3
f 69/173/3 25/172/3 23/174/3
f 70/168/1 49/169/11 50/175/1 71/176/1
f 71/176/1 50/175/1 72/177/1
f 25/178/6 71/179/6 72/180/6 26/181/6
f 26/181/6 72/180/6 51/182/6
f 50/175/1 14/183/1 51/184/1 72/177/1
f 60/185/2 73/186/2 20/187/2 59/188/2
f 59/188/2 20/187/2 21/189/2
f 74/190/1 73/191/1 60/134/1 46/192/1
f 46/192/1 60/134/1 47/133/1
f 63/193/2 75/194/2 28/195/2 62/196/2
f 62/196/2 28/195/2 29/197/2
f 38/198/1 75/199/1 63/140/1 39/39/1
f 38/200/5 27/201/5 28/202/5 75/203/5
f 68/204/2 67/205/2 35/206/2 76/207/2
f 76/207/2 35/206/2 34/208/2
f 36/209/6 43/210/6 76/211/6 34/212/6
f 44/160/10 68/159/1 76/213/1 43/214/1
f 55/215/5 19/216/5 20/217/5 57/218/5
f 74/219/5 57/218/5 20/217/5 73/220/5
f 57/123/1 74/190/1 46/192/1 45/124/1
